<svg xmlns="http://www.w3.org/2000/svg" width="20" height="20" fill="white" viewBox="0 0 24 24">
  <path d="M19.4 13c.04-.33.06-.66.06-1s-.02-.67-.06-1l2.11-1.65c.19-.15.24-.42.12-.64l-2-3.46c-.12-.22-.39-.3-.61-.22l-2.49 1a7.03 7.03 0 0 0-1.73-1l-.38-2.65A.488.488 0 0 0 13.96 2h-3.92c-.24 0-.45.18-.49.42l-.38 2.65c-.63.25-1.22.59-1.73 1l-2.49-1c-.23-.09-.49 0-.61.22l-2 3.46c-.12.22-.07.49.12.64L4.6 11c-.04.33-.06.66-.06 1s.02.67.06 1L2.49 14.65c-.19.15-.24.42-.12.64l2 3.46c.12.22.39.3.61.22l2.49-1c.51.41 1.1.75 1.73 1l.38 2.65c.04.24.25.42.49.42h3.92c.24 0 .45-.18.49-.42l.38-2.65c.63-.25 1.22-.59 1.73-1l2.49 1c.23.09.49 0 .61-.22l2-3.46c.12-.22.07-.49-.12-.64L19.4 13zM12 15.5c-1.93 0-3.5-1.57-3.5-3.5S10.07 8.5 12 8.5s3.5 1.57 3.5 3.5-1.57 3.5-3.5 3.5z"/>
</svg>